# xmcd
#
# Track frame offsets:
#	150
#	18638
#	36502
#	52335
#	73717
#	93121
#	107956
#	127441
#	142128
#	161482
#	180650
#	200878
#	222733
#	242858
#	260181
#	280951
#	301298
#
# Disc length: 4322 seconds
#
# Revision: 0
# Processed by: cddbd v1.5.1PL0 Copyright (c) Steve Scherf et al.
# Submitted via: dBpowerAMP V4.0
#
DISCID=2510e011
DTITLE=周杰伦 - 周杰伦创作集
DYEAR=2001
DGENRE=R&B
TTITLE0=完美主义
TTITLE1=威廉古堡
TTITLE2=伊斯坦堡
TTITLE3=黑色幽默
TTITLE4=反方向的钟
TTITLE5=上海一九四三
TTITLE6=抱一抱
TTITLE7=刀马旦
TTITLE8=算命
TTITLE9=温柔坏男人
TTITLE10=命中注定
TTITLE11=瞎了聋了
TTITLE12=我爱的人
TTITLE13=一壶乡愁
TTITLE14=打开爱
TTITLE15=姐你睡了吗
TTITLE16=你怎么连话都说不清楚
EXTD=
EXTT0=
EXTT1=
EXTT2=
EXTT3=
EXTT4=
EXTT5=
EXTT6=
EXTT7=
EXTT8=
EXTT9=
EXTT10=
EXTT11=
EXTT12=
EXTT13=
EXTT14=
EXTT15=
EXTT16=
PLAYORDER=
